<svg version="1.1" id="Layer_1" xmlns="http://www.w3.org/2000/svg" xmlns:xlink="http://www.w3.org/1999/xlink" x="0px" y="0px"
	 width="6.5rem" viewBox="0 0 554 554" enable-background="new 0 0 554 554" xml:space="preserve">
<path fill="#FEFEFE" opacity="1.000000" stroke="none" 
	d="
M362.000000,555.000000 
	C242.860092,555.000000 124.220169,554.982239 5.580346,555.084961 
	C1.982355,555.088074 0.891444,554.515198 0.894080,550.582214 
	C1.015952,368.789948 1.015113,186.997620 0.894239,5.205374 
	C0.891761,1.479565 1.806401,0.911084 5.292827,0.912977 
	C187.085114,1.011645 368.877472,1.010071 550.669739,0.922382 
	C554.048462,0.920753 555.116333,1.335459 555.113586,5.167943 
	C554.983337,187.126801 554.986572,369.085785 555.099792,551.044678 
	C555.101929,554.557007 554.285339,555.096558 550.956848,555.090088 
	C488.138092,554.967773 425.319000,555.000000 362.000000,555.000000 
z"/>
<path fill="#0A0A0A" opacity="1.000000" stroke="none" 
	d="
M368.588501,360.616516 
	C370.622498,370.471893 371.766632,380.030975 371.192749,389.721100 
	C370.785828,396.591064 368.069244,399.494202 361.400635,400.957245 
	C354.680389,402.431641 347.829742,401.934174 341.053436,402.549072 
	C334.245056,403.166901 327.542511,403.944397 321.147491,406.559021 
	C316.158997,408.598633 310.975555,409.824036 305.581573,408.559418 
	C302.687103,407.880859 302.578949,409.455322 302.629547,411.509430 
	C302.735809,415.822632 303.895386,420.487854 302.650391,424.377289 
	C300.089783,432.376709 304.307465,438.507568 306.631531,445.242737 
	C308.069824,449.410980 307.336609,452.847473 303.171600,454.933777 
	C294.617340,459.218628 285.900085,459.217255 277.126862,455.617767 
	C274.355865,454.480896 273.770477,452.419922 274.301636,449.528656 
	C275.422241,443.429230 278.781921,438.161377 280.202393,432.110291 
	C282.135620,423.874878 282.545105,415.589325 283.015991,407.252319 
	C283.083710,406.053345 282.616852,405.205902 281.511902,405.057404 
	C276.222809,404.346771 272.264008,400.703461 267.509552,398.835175 
	C266.429779,398.410919 265.315521,398.003723 264.179321,397.805359 
	C258.098877,396.743988 256.045654,398.363556 256.241852,404.427277 
	C256.456604,411.064850 256.625732,417.685272 256.256287,424.328186 
	C256.091644,427.288544 256.827698,430.092804 258.768768,432.674774 
	C262.605560,437.778595 264.778137,443.708862 266.157532,449.916260 
	C266.942047,453.446625 265.926025,455.627838 262.270264,457.330322 
	C254.968918,460.730591 247.321808,461.440338 239.833908,459.902008 
	C231.861053,458.264038 226.897095,452.996155 231.197357,444.347595 
	C233.552383,439.611206 235.486221,434.655853 238.010880,430.017456 
	C239.211731,427.811188 237.491501,426.324585 237.574097,424.385864 
	C237.905884,416.598480 237.702332,408.788788 237.726669,400.987427 
	C237.732559,399.098450 237.723160,397.860321 235.165115,397.134521 
	C219.815903,392.779602 208.096100,383.565796 200.219925,369.117493 
	C203.559982,366.551575 207.101547,366.742218 210.440369,367.141876 
	C214.596527,367.639313 218.560883,367.149567 222.950378,366.253571 
	C226.520996,366.215363 229.019012,368.000275 231.561935,369.534576 
	C233.752716,370.856415 234.550323,370.258911 234.622864,367.893188 
	C234.730164,364.394928 234.495178,360.888275 234.773468,357.399902 
	C234.900467,355.808075 234.925507,353.613464 237.243744,353.808838 
	C239.049210,353.960968 239.154404,355.909943 239.236786,357.391174 
	C239.431107,360.886230 239.301987,364.385071 239.215378,367.884399 
	C239.045822,374.733612 242.588379,380.202728 248.845749,382.751923 
	C253.262985,384.551514 257.199371,381.920441 260.600769,380.249939 
	C272.164948,374.570557 283.812958,372.686249 296.087372,377.057983 
	C300.155548,378.506866 304.395355,379.420624 308.705627,381.351685 
	C314.585632,386.126251 316.475739,385.573456 320.657959,380.095581 
	C323.794861,375.986847 325.291473,371.828644 324.705048,366.788330 
	C324.590637,365.804932 324.714417,364.787903 324.980621,363.816254 
	C325.252380,362.824463 325.656555,361.795410 326.801361,361.687958 
	C328.270020,361.550140 328.800262,362.699280 329.036652,363.887268 
	C329.593781,366.686951 329.298279,369.533752 329.343048,372.357971 
	C329.382629,374.854095 330.238342,376.334167 332.900879,376.898224 
	C341.868439,378.798096 349.044708,384.571320 357.137115,388.376801 
	C357.880463,388.726410 358.454163,389.404816 359.254608,389.679443 
	C361.249451,390.363983 363.343384,392.053925 365.356049,390.644958 
	C367.479828,389.158173 366.191467,386.727478 366.094482,384.623444 
	C365.730835,376.730774 363.006195,368.859192 366.035889,360.605957 
	C366.975830,359.623932 367.683685,359.625397 368.588501,360.616516 
z"/>
<path fill="#040205" opacity="1.000000" stroke="none" 
	d="
M166.018280,184.324020 
	C165.178223,181.655106 164.959503,179.230011 165.127243,176.350342 
	C164.965652,174.840057 165.074539,173.708450 164.749298,172.290222 
	C163.106552,163.606094 163.632782,155.236786 164.690613,146.470215 
	C164.920898,145.550964 164.979156,145.022659 164.908569,144.221420 
	C164.993500,142.553696 165.112045,141.150711 165.459152,139.388123 
	C166.127960,137.676712 165.849442,136.155243 166.620514,134.537231 
	C168.186935,127.462425 171.816849,125.510376 178.074066,128.207321 
	C180.477814,129.243393 182.830994,130.493286 184.856964,132.719742 
	C185.936951,133.851746 186.248291,135.314819 187.951477,135.779190 
	C192.452377,139.142593 194.730881,143.955078 198.100891,148.253326 
	C198.806793,149.981461 199.595810,151.297958 200.751785,152.770035 
	C200.979462,153.008972 201.002731,153.001724 200.995834,153.012344 
	C201.593018,153.735626 201.828781,154.648102 202.480560,155.725494 
	C204.024582,158.603333 205.385239,161.190018 206.849091,164.137634 
	C207.660217,164.849197 208.199341,164.639801 208.652756,163.663025 
	C208.536301,159.252975 209.634415,155.431931 211.266586,151.350357 
	C212.415649,149.246216 212.871124,147.287979 213.776993,145.148651 
	C215.632889,139.281784 218.782150,134.432281 221.931564,129.226257 
	C222.883682,128.236679 223.605804,127.555397 225.073471,127.537109 
	C228.214111,131.018753 223.831711,133.412231 224.055725,136.847748 
	C223.840271,137.443390 223.736053,137.675476 223.420227,138.225616 
	C217.514404,146.174286 214.641586,154.935928 213.498474,164.227142 
	C213.078293,167.642334 211.354218,170.846085 212.009842,174.449509 
	C212.247498,175.755737 211.676193,177.185715 210.102356,177.548370 
	C208.269257,177.970779 207.453583,176.744156 206.782364,175.269348 
	C203.759689,168.627853 200.083282,162.315964 196.894089,155.758469 
	C196.088333,154.101715 195.168350,152.561646 193.524704,151.080475 
	C193.059235,150.695480 192.888458,150.527512 192.518402,150.067734 
	C191.405380,146.151001 189.003662,143.642288 185.842896,141.319305 
	C185.403839,141.005219 185.233643,140.873169 184.822845,140.528625 
	C183.976425,139.717834 183.336395,139.162735 182.319061,138.555756 
	C181.707413,138.079407 181.403000,137.754440 180.935516,137.120728 
	C179.623978,134.815918 177.538681,133.994064 175.645126,133.137543 
	C172.850418,131.873413 170.669540,132.691116 170.447342,136.061234 
	C170.102585,141.290390 168.568100,146.451965 169.583405,152.090698 
	C169.751007,152.878036 169.797577,153.334335 169.791412,154.134964 
	C169.662064,155.368835 169.573059,156.262009 169.871552,157.497925 
	C170.100464,158.815735 170.057770,159.787384 169.865875,161.136429 
	C168.948517,171.802597 170.523224,181.911697 172.290985,191.970139 
	C174.079224,202.145020 176.870529,212.105270 179.379669,222.121750 
	C180.180756,225.319687 181.238678,228.435150 183.255081,231.598816 
	C183.565308,232.539291 183.528595,233.095718 183.066879,233.986267 
	C181.437927,235.209595 180.042969,235.259155 178.247604,234.257996 
	C173.833237,223.727982 171.633286,212.928986 169.082260,202.236908 
	C167.861938,197.122162 167.080505,191.902710 166.178955,186.322357 
	C166.153580,185.496506 166.078308,185.073868 166.018280,184.324020 
z"/>
<path fill="#1F0918" opacity="1.000000" stroke="none" 
	d="
M301.561707,107.911652 
	C307.118713,111.282211 310.516296,116.235580 314.117828,121.344360 
	C315.560486,130.995819 320.187927,139.181015 323.658722,147.732834 
	C326.027039,153.568237 327.528473,159.669052 329.073486,165.603271 
	C332.446655,178.558929 335.378052,191.710754 336.569122,205.134933 
	C336.701965,206.632294 336.338867,208.107437 336.584656,209.891113 
	C336.546326,207.038101 336.710541,204.456284 340.005249,204.111084 
	C342.644348,203.834579 344.178833,205.002609 343.556580,208.258606 
	C342.346008,209.437195 340.794678,209.724899 341.262238,211.837723 
	C342.850922,219.016647 343.454803,226.388290 345.537994,233.872284 
	C347.123474,242.270493 348.248657,250.357925 350.118866,258.313904 
	C350.652374,260.583435 350.593445,262.959991 350.092224,265.268829 
	C349.714844,267.007263 348.847321,268.397430 346.898651,268.630341 
	C345.086121,268.847015 344.224060,267.585052 343.491333,266.216003 
	C342.377563,264.135040 341.857422,261.865936 341.331360,259.585938 
	C339.493896,251.622604 338.530518,243.501129 336.846252,235.088043 
	C331.420044,209.510742 330.351532,183.503799 321.853699,158.947235 
	C318.972137,150.620255 316.093994,142.288437 312.889038,134.086899 
	C309.167877,124.564598 302.875336,116.937981 294.630676,110.879875 
	C292.799683,109.534492 290.444244,108.698235 289.518372,105.922943 
	C291.292816,102.657669 293.511261,102.770927 295.595551,104.980049 
	C297.189728,106.669746 298.994415,107.548714 301.561707,107.911652 
z"/>
<path fill="#0C0C0F" opacity="1.000000" stroke="none" 
	d="
M343.437134,209.411346 
	C343.181152,206.360504 342.589935,204.251907 339.508148,205.185974 
	C337.304535,205.853882 336.742859,207.751724 337.522491,210.015350 
	C338.013733,211.441681 339.707733,212.733444 338.249603,214.528931 
	C336.550140,214.187424 336.137543,212.743027 336.125824,211.525955 
	C336.066620,205.373962 333.987183,199.541656 333.720520,193.338531 
	C333.444641,186.921143 330.785095,180.640976 329.651642,174.215515 
	C328.618256,168.357117 326.166962,162.912048 324.908356,157.248001 
	C322.931122,148.350128 318.414551,140.521729 315.867004,131.917801 
	C314.936798,128.776108 311.416199,126.287910 313.974976,122.058945 
	C320.790863,132.022675 323.708130,143.922363 328.051941,155.601059 
	C328.007355,156.564194 328.137634,157.095856 328.657654,157.783051 
	C332.829010,169.262299 335.072815,180.938873 336.895294,192.693420 
	C337.439575,196.203690 338.375824,198.621445 341.791992,200.753174 
	C348.047089,204.656433 351.947601,211.030991 355.678406,217.309631 
	C357.449036,220.289444 359.073273,223.356262 360.559814,226.900986 
	C358.687988,227.621338 357.645233,226.207657 355.909637,225.682510 
	C353.319672,224.753189 353.202820,221.990158 351.079865,220.591110 
	C350.695160,220.187820 350.560944,220.007431 350.279968,219.522614 
	C349.111053,215.397369 346.719482,212.507996 343.437134,209.411346 
z"/>
<path fill="#0C0C0F" opacity="1.000000" stroke="none" 
	d="
M368.772003,360.561523 
	C368.328735,360.715698 367.880554,360.453186 367.186035,360.108154 
	C364.704620,361.366760 363.417328,360.286377 362.956818,358.177002 
	C360.502441,346.934479 357.178864,335.860413 356.366882,323.905701 
	C356.818115,322.681061 357.515533,322.359650 358.710754,322.241364 
	C361.266632,323.424072 363.389954,325.893951 366.022705,322.329010 
	C366.412231,321.918335 366.578949,321.763733 367.029297,321.419006 
	C370.558502,319.555328 373.354156,317.393646 375.234253,313.748718 
	C375.656311,313.015564 375.977753,312.651215 376.648621,312.105591 
	C383.142548,307.538574 386.756256,301.802673 386.718689,294.029541 
	C386.707611,291.737610 386.377808,289.381531 387.756897,286.911041 
	C388.796814,286.236542 389.577911,286.215027 390.707703,286.763733 
	C394.829163,299.389496 388.881195,308.609589 380.742279,316.687225 
	C375.959320,321.434204 371.033661,326.217682 365.186279,329.748322 
	C362.227936,331.534576 363.166931,334.005585 363.642548,336.331543 
	C365.269073,344.286011 367.046936,352.209534 368.772003,360.561523 
z"/>
<path fill="#110E0F" opacity="1.000000" stroke="none" 
	d="
M301.763306,107.735504 
	C299.098755,109.720901 296.664825,109.215294 295.224152,106.323517 
	C293.916626,103.699005 292.182648,104.393280 289.886230,105.173950 
	C289.263855,105.195312 289.014587,105.128616 288.492859,104.788994 
	C287.134857,101.946213 284.837982,101.441719 282.472656,101.428696 
	C274.539062,101.385010 266.638245,100.782974 258.776917,103.210762 
	C254.333267,104.583084 250.878708,107.301926 246.646484,109.555016 
	C246.154739,109.897408 245.966660,110.042564 245.481293,110.375076 
	C242.126999,111.717438 239.880264,113.730957 238.391342,117.039154 
	C237.990372,117.433243 237.802078,117.560944 237.302017,117.825439 
	C235.374771,118.213692 234.409958,119.138206 233.692444,120.627037 
	C232.029465,124.077576 229.313263,126.440102 225.358856,127.827248 
	C224.308182,128.293884 223.570068,128.633423 222.526627,128.993668 
	C233.472229,109.108139 253.741928,92.918945 278.790649,96.118156 
	C287.528992,97.234215 295.116455,101.427010 301.763306,107.735504 
z"/>
<path fill="#0A0A0A" opacity="1.000000" stroke="none" 
	d="
M199.995041,369.002625 
	C194.413864,361.356049 193.030685,352.328735 191.974884,343.269409 
	C191.341980,337.838440 191.269836,332.342133 191.013977,326.436066 
	C191.979858,325.035706 192.467667,323.553436 194.540314,323.726105 
	C196.860901,325.731598 196.197327,328.166260 196.363358,330.415192 
	C197.162415,341.238312 197.408676,352.150299 201.641586,362.844910 
	C201.878403,364.982330 201.538376,366.607880 200.476257,368.464783 
	C200.210571,368.788696 200.067001,368.931427 199.995041,369.002625 
z"/>
<path fill="#0C0C0F" opacity="1.000000" stroke="none" 
	d="
M360.862610,227.121658 
	C367.754547,236.127579 373.037018,246.103195 378.276093,256.516052 
	C377.949982,257.565338 377.259674,257.837158 376.135559,258.054291 
	C375.268005,258.107422 374.776703,258.063141 373.944641,257.869629 
	C373.394501,257.651337 373.189117,257.536774 372.750732,257.164856 
	C371.605988,254.745407 371.425598,252.184006 368.930298,250.520538 
	C368.579285,250.090408 368.459778,249.899689 368.209259,249.394653 
	C367.521271,246.542969 366.084839,244.465652 364.362000,242.173431 
	C363.989258,241.759079 363.847412,241.588730 363.520752,241.146561 
	C362.899139,240.138535 362.477539,239.389740 361.454712,238.724457 
	C360.102203,237.646210 359.513763,236.454529 359.017700,234.826965 
	C358.772125,233.851669 358.645172,233.193497 358.406555,232.213684 
	C358.281219,231.430344 358.299042,230.979523 358.493225,230.210693 
	C359.093201,229.124374 359.669983,228.431213 360.493164,227.504211 
	C360.716614,227.252533 360.813873,227.165207 360.862610,227.121658 
z"/>
<path fill="#110E0F" opacity="1.000000" stroke="none" 
	d="
M374.745850,257.334106 
	C375.822144,257.002380 376.675568,256.971802 377.954346,256.903625 
	C383.491455,263.519043 385.481842,271.650787 388.861664,279.121216 
	C389.876068,281.363342 390.390198,283.831818 391.088531,286.597382 
	C390.281891,286.996094 389.520203,286.994019 388.377686,286.989685 
	C383.707123,283.514984 383.267273,278.070129 381.196533,273.479340 
	C380.308563,271.510651 379.651611,269.493256 377.819580,267.673218 
	C376.973053,266.586273 376.561523,265.678955 376.063843,264.396637 
	C375.789093,261.835846 373.591553,260.080597 374.745850,257.334106 
z"/>
<path fill="#0A0A0A" opacity="1.000000" stroke="none" 
	d="
M191.645004,298.259125 
	C191.117493,290.949493 190.860153,283.893127 190.865891,276.836975 
	C190.869507,272.376404 188.579773,268.608093 187.676697,264.094727 
	C187.487366,262.423462 186.783157,261.061310 188.438507,259.723572 
	C192.095123,260.085480 192.488403,263.104370 193.360092,265.383179 
	C194.504486,268.374908 195.402130,271.489258 196.195190,274.880829 
	C195.217529,276.056641 194.779343,277.032715 195.185822,278.620605 
	C195.246429,285.000336 196.051941,291.017731 194.698639,297.395874 
	C193.829834,298.584839 192.976837,298.715546 191.645004,298.259125 
z"/>
<path fill="#040205" opacity="1.000000" stroke="none" 
	d="
M191.153214,298.372467 
	C191.956985,298.000732 192.650436,297.995697 193.690613,297.985596 
	C196.470688,299.175568 196.509537,301.439941 196.125778,303.539764 
	C195.284424,308.143402 195.218277,312.680908 196.104324,317.281158 
	C196.520569,319.442169 196.006134,321.550354 194.398895,323.705536 
	C193.275116,324.637329 192.488678,325.276947 191.392258,325.956726 
	C191.060593,318.971588 191.038910,311.946228 191.126831,304.464233 
	C191.794891,303.263947 192.056763,302.469788 191.492371,301.275604 
	C191.235458,300.239014 191.139175,299.489105 191.153214,298.372467 
z"/>
<path fill="#110E0F" opacity="1.000000" stroke="none" 
	d="
M190.262085,259.668732 
	C188.180847,260.153931 187.972687,261.491333 187.801544,263.328156 
	C186.177719,259.414154 184.636185,255.086807 183.137115,250.374390 
	C183.796448,249.341431 184.574936,249.202530 185.814453,249.392334 
	C189.492111,251.981735 191.047119,255.213852 190.262085,259.668732 
z"/>
<path fill="#110E0F" opacity="1.000000" stroke="none" 
	d="
M177.876617,234.411469 
	C179.342682,233.986130 180.804214,233.963425 182.974731,234.233673 
	C184.451736,236.159714 184.272537,237.884827 184.119812,240.029907 
	C183.532547,242.092453 183.464386,243.885849 182.012177,245.552979 
	C180.382782,242.120758 179.127426,238.467422 177.876617,234.411469 
z"/>
<path fill="#040205" opacity="1.000000" stroke="none" 
	d="
M181.648315,246.096222 
	C181.983307,244.091568 182.328491,242.409027 182.840103,240.333588 
	C187.474808,241.840302 187.296997,245.512909 186.316620,249.706543 
	C185.313248,250.018951 184.602066,250.005112 183.535248,249.990265 
	C182.672577,248.798981 182.165558,247.608658 181.648315,246.096222 
z"/>
<path fill="#110E0F" opacity="1.000000" stroke="none" 
	d="
M213.663544,145.056763 
	C214.160843,147.095840 213.322540,149.014114 211.819016,150.928986 
	C211.708450,148.967148 212.398560,147.062149 213.663544,145.056763 
z"/>
<path fill="#110E0F" opacity="1.000000" stroke="none" 
	d="
M164.553802,172.298004 
	C166.487198,172.740097 166.108139,174.121964 165.410706,175.733521 
	C164.938293,174.834747 164.694855,173.730972 164.553802,172.298004 
z"/>
<path fill="#0E0D0D" opacity="1.000000" stroke="none" 
	d="
M166.338943,134.463989 
	C166.935867,135.700500 167.454208,137.226669 166.014832,138.847961 
	C165.016586,137.522751 165.703140,136.147949 166.338943,134.463989 
z"/>
<path fill="#0E0D0D" opacity="1.000000" stroke="none" 
	d="
M200.926956,152.674408 
	C198.783981,152.747711 198.443314,151.037476 198.131424,148.953461 
	C199.669540,149.396545 199.929520,151.115463 200.926956,152.674408 
z"/>
<path fill="#0E0D0D" opacity="1.000000" stroke="none" 
	d="
M188.177643,135.581421 
	C186.629211,136.033966 185.085526,136.053314 184.992065,133.425446 
	C186.026001,133.782913 187.066986,134.523376 188.177643,135.581421 
z"/>
<path fill="#0A0A0A" opacity="1.000000" stroke="none" 
	d="
M191.275818,301.364258 
	C193.338867,301.631195 193.639191,302.577057 191.542511,303.951172 
	C191.230927,303.251556 191.225418,302.495575 191.275818,301.364258 
z"/>
<path fill="#1F0918" opacity="1.000000" stroke="none" 
	d="
M208.470001,163.636932 
	C208.973923,164.387894 209.540619,165.633881 208.390991,166.361801 
	C207.362137,167.013260 207.175018,165.903122 206.947479,164.838654 
	C207.382523,164.314758 207.812759,164.130936 208.470001,163.636932 
z"/>
<path fill="#0E0D0D" opacity="1.000000" stroke="none" 
	d="
M202.616516,155.721115 
	C201.229782,155.872009 200.964432,154.877365 200.979065,153.354630 
	C202.124069,153.423691 201.995544,154.655502 202.616516,155.721115 
z"/>
<path fill="#0E0D0D" opacity="1.000000" stroke="none" 
	d="
M164.699829,144.129883 
	C165.671997,144.410995 166.015320,144.976303 165.064804,145.934433 
	C164.043243,145.589661 164.444351,144.920975 164.699829,144.129883 
z"/>
<path fill="#110E0F" opacity="1.000000" stroke="none" 
	d="
M165.884491,184.177948 
	C166.703629,184.339371 167.053864,184.819748 166.459732,185.759247 
	C166.093155,185.393997 165.928680,184.873978 165.884491,184.177948 
z"/>
<path fill="#1F0918" opacity="1.000000" stroke="none" 
	d="
M328.849121,157.724030 
	C327.906433,157.816315 326.894958,157.694641 327.788666,156.154602 
	C328.297058,156.475388 328.584259,156.958755 328.849121,157.724030 
z"/>
<path fill="#0A092C" opacity="1.000000" stroke="none" 
	d="
M357.223145,322.760010 
	C358.649536,331.416718 360.370392,339.800018 361.938965,348.211670 
	C362.599823,351.755524 364.573547,354.992920 364.241852,358.783386 
	C364.165497,359.655823 365.292664,359.910065 366.544006,360.008087 
	C364.585175,368.450989 366.728577,376.777100 367.582336,385.116150 
	C367.838776,387.621033 368.619873,390.051025 366.357880,392.033447 
	C364.201050,393.923615 362.175262,392.238464 360.334259,391.530853 
	C356.040955,389.880676 352.092010,387.378571 348.114136,385.152771 
	C342.573730,382.052734 337.238495,378.932251 330.871979,377.880859 
	C328.081573,377.420013 328.153656,374.958038 328.015961,372.783325 
	C327.802704,369.414459 328.560852,365.964203 327.147430,361.537720 
	C325.261658,365.573761 326.252686,368.839081 326.002319,371.932312 
	C325.522736,377.856720 321.510193,381.845184 317.581818,385.269226 
	C315.080139,387.449707 311.235779,386.178284 309.194214,382.278900 
	C311.934143,380.729523 314.957672,383.793365 317.294281,380.739441 
	C320.041290,377.149139 322.524231,373.577454 322.655548,368.681213 
	C323.051636,353.910553 321.902802,339.389648 316.853851,325.365509 
	C315.999939,322.993652 315.479675,320.550568 315.768402,318.010651 
	C315.940002,316.500793 316.183990,314.942139 317.972565,314.467133 
	C319.628967,314.027222 320.933533,314.842682 321.930450,316.031250 
	C324.109650,318.629333 325.399536,321.733276 326.350067,324.924835 
	C330.462677,338.733551 332.862579,352.757263 331.502106,367.250793 
	C330.931549,373.329407 331.665100,374.255463 337.580597,376.092133 
	C345.300568,378.489044 351.826050,383.296112 359.028259,386.741486 
	C363.090179,388.684662 363.346283,388.554871 363.629181,384.063507 
	C364.406677,371.719879 361.254547,359.886963 358.572174,348.079224 
	C356.172760,337.517029 355.030212,326.714996 352.082611,316.269257 
	C351.458771,314.058502 351.283081,311.331848 354.185791,310.338409 
	C357.442657,309.223785 358.888733,311.482300 360.315979,313.993591 
	C361.831940,316.660858 361.215210,321.040619 366.234222,321.518494 
	C367.321899,324.434814 365.115784,325.005859 363.367859,325.675964 
	C361.693024,326.318024 360.572357,325.398468 360.028503,323.368713 
	C357.841827,321.298340 357.385681,318.672089 356.420197,316.010132 
	C356.732422,318.400574 358.410980,320.215118 357.223145,322.760010 
z"/>
<path fill="#0A092C" opacity="1.000000" stroke="none" 
	d="
M194.343719,324.298096 
	C194.156296,315.571686 194.251038,307.145630 194.191559,298.350037 
	C194.036255,291.309448 194.035187,284.638397 194.044556,277.501099 
	C194.289017,276.898773 194.523041,276.762665 195.163849,276.651733 
	C196.071136,276.930450 196.455566,277.303741 196.874786,278.178162 
	C197.506119,281.505280 197.429184,284.523499 198.248489,287.841309 
	C198.600479,303.562927 198.320419,318.875580 198.444138,334.186737 
	C198.502228,341.374786 199.593689,348.407684 201.523254,355.353485 
	C202.530609,358.979675 204.460052,360.781311 208.237686,360.554932 
	C215.427750,360.124023 222.101685,361.950714 228.365601,365.355957 
	C231.468033,367.042450 232.723969,366.021362 232.501480,362.742554 
	C232.231094,358.758026 231.760971,354.779358 232.656097,350.817139 
	C233.160507,348.584412 233.278366,345.611542 236.355499,345.791046 
	C239.073471,345.949615 239.975128,348.625366 240.140167,350.990967 
	C240.487610,355.970917 241.302689,360.897614 241.542664,365.893890 
	C241.757904,370.375153 242.297348,374.811371 246.054840,378.171570 
	C249.160400,380.948730 252.148346,381.861725 255.931824,379.540985 
	C262.143799,375.730621 269.080200,374.093750 276.216614,372.977600 
	C286.884247,371.309204 296.687622,373.875244 306.127197,378.558777 
	C307.323944,379.152527 308.449493,379.877655 309.033386,381.574982 
	C309.003510,381.994934 308.901489,382.111877 308.852478,382.174377 
	C303.451202,380.730011 297.790802,379.875885 292.832062,377.535248 
	C287.731995,375.127899 282.344147,375.127594 277.817657,376.411407 
	C272.302246,377.975677 265.024597,375.789337 261.362823,382.484894 
	C256.485199,381.141632 252.368851,387.300568 246.970551,383.494812 
	C241.339600,379.525085 237.413116,375.145355 237.867676,367.755737 
	C238.135040,363.409393 238.484451,358.984680 237.186005,353.191040 
	C235.224304,358.635895 236.342285,362.866302 235.975082,366.955902 
	C235.804123,368.859894 236.797028,371.291840 234.606796,372.409454 
	C232.717651,373.373474 231.938980,370.902710 230.499771,370.252014 
	C228.232391,369.226776 226.001068,368.121796 223.397705,367.005615 
	C216.012085,365.348724 208.713562,366.080536 201.360291,364.209503 
	C198.047821,357.387451 196.310883,350.575043 195.975174,343.366364 
	C195.683502,337.103027 195.087433,330.853851 194.343719,324.298096 
z"/>
<path fill="#E4E4E4" opacity="1.000000" stroke="none" 
	d="
M245.046265,433.647156 
	C251.979309,432.592316 255.943619,435.305878 257.721558,441.678101 
	C258.134827,443.159241 258.531494,444.405121 256.725342,444.724792 
	C251.064590,445.726715 245.357056,447.207062 239.755737,444.397888 
	C239.316238,444.177460 238.536865,444.054443 238.469620,443.759735 
	C237.575974,439.843109 241.145386,437.173523 241.419891,433.414825 
	C241.552597,431.597931 243.525146,433.389618 245.046265,433.647156 
z"/>
<path fill="#EAEAEA" opacity="1.000000" stroke="none" 
	d="
M243.937317,404.350220 
	C250.418732,403.613220 251.865494,407.223145 251.784134,412.274841 
	C251.768204,413.264343 251.836685,414.258392 251.920547,415.245758 
	C252.516754,422.265228 252.521255,422.173309 245.679932,422.172882 
	C243.700012,422.172760 243.011658,421.529114 242.968460,419.666351 
	C242.850494,414.578613 242.267487,409.479095 243.937317,404.350220 
z"/>
<path fill="#E4E4E4" opacity="1.000000" stroke="none" 
	d="
M295.776306,419.110504 
	C293.190979,417.914032 289.626434,420.280396 288.669647,417.480499 
	C287.285522,413.430084 288.011505,408.978943 288.668060,404.738251 
	C288.896942,403.260010 290.490448,403.309479 291.539429,403.671082 
	C293.330139,404.288452 296.511078,403.002258 296.798737,405.127472 
	C297.424591,409.751434 299.341400,414.643768 295.776306,419.110504 
z"/>
<path fill="#EAEAEA" opacity="1.000000" stroke="none" 
	d="
M288.849182,389.765625 
	C288.727722,387.701965 288.406860,385.986298 288.736359,384.406250 
	C289.041290,382.944122 286.824493,380.128967 290.003540,380.179718 
	C292.498077,380.219574 295.978119,380.190430 296.106750,384.420044 
	C296.202759,387.577759 296.719818,390.728394 296.713165,393.881470 
	C296.708710,395.985260 298.334778,399.143219 293.695587,399.009064 
	C289.812775,398.896759 288.218933,397.559845 288.930817,393.652954 
	C289.135406,392.530029 288.943542,391.334839 288.849182,389.765625 
z"/>
<path fill="#D7D7D7" opacity="1.000000" stroke="none" 
	d="
M283.756104,439.904327 
	C284.260468,438.060364 284.669189,436.622437 284.961609,435.161285 
	C285.393829,433.001648 286.340363,431.914795 288.742249,432.779358 
	C289.810364,433.163788 291.025604,433.201263 292.181488,433.268646 
	C295.910309,433.485992 300.499756,438.901794 299.960846,442.498444 
	C299.720367,444.103149 298.379181,443.908112 297.295776,444.158142 
	C292.979340,445.154083 288.681976,444.178772 284.402588,443.888672 
	C281.263245,443.675873 283.385406,441.626678 283.756104,439.904327 
z"/>
<path fill="#DEDEDE" opacity="1.000000" stroke="none" 
	d="
M256.739838,453.896912 
	C251.365555,454.986542 246.480896,456.867279 241.241257,455.089233 
	C239.466995,454.487152 237.916565,453.690857 236.459869,452.576996 
	C235.098679,451.536163 234.464111,450.159393 235.334152,448.684753 
	C236.513901,446.685150 237.641434,448.632568 238.563187,449.133698 
	C243.241516,451.677399 248.135986,451.357056 253.094498,450.490326 
	C253.903107,450.348999 254.663040,449.949341 255.464493,449.742920 
	C257.271332,449.277466 259.636322,447.604980 260.669800,450.129456 
	C261.817566,452.933075 258.597137,452.791107 256.739838,453.896912 
z"/>
<path fill="#E4E4E4" opacity="1.000000" stroke="none" 
	d="
M243.207916,384.748230 
	C244.285690,385.338837 245.119263,386.607391 246.254700,386.997681 
	C250.618973,388.497772 251.448929,391.682617 250.903061,395.698242 
	C250.694931,397.229309 252.036484,399.862457 248.850708,399.431702 
	C246.458252,399.108215 242.842728,400.209137 242.939880,395.593170 
	C243.012329,392.150909 243.436707,388.676910 242.981262,384.866486 
	C243.254974,384.660797 243.178665,384.841827 243.207916,384.748230 
z"/>
<path fill="#040205" opacity="1.000000" stroke="none" 
	d="
M200.892212,364.252991 
	C208.259766,364.298859 215.690186,362.875885 222.791107,366.691589 
	C218.041672,370.055267 212.514801,368.535980 207.267746,368.365479 
	C205.047485,368.293304 203.099503,369.463409 200.586395,368.859802 
	C199.896484,367.326599 199.908005,365.905914 200.892212,364.252991 
z"/>
<path fill="#D7D7D7" opacity="1.000000" stroke="none" 
	d="
M286.627716,448.993347 
	C291.857880,449.273956 296.652283,449.457520 301.533630,448.908447 
	C298.077728,452.539001 293.520691,453.044037 288.849365,452.897766 
	C286.724182,452.831238 284.606537,452.235443 282.505005,451.788086 
	C280.725494,451.409332 279.238312,450.703827 280.205109,448.416992 
	C281.264984,445.910004 282.611450,447.990417 283.820435,448.235992 
	C284.626862,448.399750 285.403595,448.709717 286.627716,448.993347 
z"/>
<path fill="#DEDEDE" opacity="1.000000" stroke="none" 
	d="
M296.880432,425.746704 
	C296.147461,426.698883 295.424408,427.369446 294.583374,427.819641 
	C291.985596,429.210266 289.840515,427.953735 287.765503,426.500488 
	C287.209229,426.110870 286.593536,425.396454 287.094116,424.906799 
	C288.842987,423.195984 291.085938,424.086761 293.104401,424.188232 
	C294.364929,424.251587 295.593475,424.950531 296.880432,425.746704 
z"/>
<path fill="#E4E4E4" opacity="1.000000" stroke="none" 
	d="
M243.314056,384.507935 
	C243.213852,384.566071 243.089661,384.644775 242.980835,384.740845 
	C242.872009,384.836884 242.778580,384.950378 242.678391,385.056183 
	C242.403534,384.613159 242.499298,384.517029 243.139557,384.620728 
	C243.313461,384.473663 243.296799,384.536133 243.314056,384.507935 
z"/>
<path fill="#EC3CA5" opacity="1.000000" stroke="none" 
	d="
M288.699219,104.629745 
	C289.008087,104.913666 289.191406,105.188927 289.352264,105.225464 
	C300.613251,112.455742 309.785126,121.386673 314.707123,133.958176 
	C323.397980,156.156036 330.216461,178.845032 333.100891,202.631653 
	C334.339294,212.844086 336.373077,222.960083 337.961060,233.523254 
	C335.998016,235.885712 333.513672,236.330078 331.012909,236.375244 
	C320.011017,236.574066 309.245117,238.994965 298.319427,239.791321 
	C275.796448,241.432983 253.471909,244.932632 230.955246,246.683426 
	C217.885437,247.699677 204.868240,249.506866 191.406311,251.054077 
	C188.967056,250.746094 187.674210,249.512161 187.267776,247.640930 
	C186.303604,243.201843 183.896957,239.193329 183.303574,234.230240 
	C183.147446,233.850876 183.109055,233.846466 183.124054,233.854370 
	C183.083801,233.446594 183.028534,233.030914 182.843018,232.326340 
	C179.628113,226.609222 178.644775,220.461487 177.165756,214.558823 
	C174.518021,203.991760 171.858505,193.391495 170.552795,182.536880 
	C169.722229,175.632187 169.045242,168.709641 168.754883,161.387146 
	C168.987991,159.934235 169.032227,158.863968 169.025085,157.393539 
	C168.987839,156.552078 168.994247,156.110672 168.982727,155.338135 
	C169.000992,154.555328 169.028305,154.103531 168.991898,153.316650 
	C168.730698,147.820969 169.325577,142.724197 170.111099,137.636932 
	C170.985672,131.972961 172.823486,131.034943 177.648499,133.948807 
	C178.922394,134.718124 180.336502,135.297180 181.688904,136.712555 
	C182.083496,137.337402 182.267410,137.603210 182.775085,137.900467 
	C183.526871,138.542496 184.060516,139.077789 184.783478,139.824158 
	C184.973801,140.034225 185.000000,139.999680 184.982941,140.013184 
	C187.940170,142.548248 190.151520,145.738510 192.709534,149.047684 
	C192.826813,149.367661 192.877792,149.731537 193.015656,149.852951 
	C199.019730,157.723282 202.608856,166.700409 206.888748,175.311951 
	C210.958252,183.500122 215.473404,191.468628 218.740341,200.045532 
	C219.126587,201.059555 219.925247,202.490555 221.231491,202.031586 
	C222.855240,201.461060 222.366684,199.907898 222.008575,198.587723 
	C221.267883,195.857254 219.633148,193.425812 219.352158,190.195541 
	C219.450195,189.618637 219.529114,189.396576 219.854736,188.923538 
	C222.302917,187.934601 223.383789,189.621994 224.713135,190.790237 
	C225.323074,191.326279 226.007111,192.091995 226.852875,191.528519 
	C227.847153,190.866089 227.621353,189.765625 227.200317,188.854843 
	C225.707718,185.626053 223.429611,183.086288 220.019760,181.163391 
	C219.520447,180.897095 219.324997,180.782806 218.856857,180.467651 
	C217.482925,179.103027 216.138229,178.344635 214.285065,177.730286 
	C213.751633,177.431595 213.548325,177.285843 213.086365,176.856201 
	C210.663681,170.250732 213.153778,164.186172 214.318954,158.202744 
	C215.670715,151.261200 218.604340,144.699371 222.609558,138.291077 
	C222.864609,137.979355 223.129669,137.685120 223.134338,137.487167 
	C225.996902,129.467789 231.581955,123.523247 237.202026,117.279907 
	C237.551102,117.197258 237.848175,117.190353 237.916962,117.058655 
	C239.502655,114.040459 242.173523,112.383705 245.056641,110.546104 
	C245.386627,110.490738 245.400040,110.405991 245.440430,110.420464 
	C256.913513,101.080009 269.974121,99.255165 284.030792,102.151413 
	C285.644318,102.483871 287.227844,103.038612 288.699219,104.629745 
z"/>
<path fill="#1F0918" opacity="1.000000" stroke="none" 
	d="
M219.084625,179.666260 
	C223.687134,181.298233 225.995163,184.964371 228.313309,188.553375 
	C229.216949,189.952393 229.797470,191.845230 228.009705,192.951218 
	C226.259796,194.033752 225.001785,192.831696 223.964844,191.313309 
	C223.230347,190.237778 222.205612,189.360458 220.961853,188.358231 
	C220.455139,188.825073 219.556549,187.784561 219.622162,189.073822 
	C220.785858,192.639862 222.076950,195.887238 223.100983,199.216721 
	C223.630905,200.939697 224.001968,203.176422 221.753738,203.899780 
	C219.795151,204.529984 218.709763,202.605606 218.149185,201.131821 
	C213.938202,190.061005 207.803741,179.896408 203.148087,169.048050 
	C200.379196,162.596130 196.660324,156.708267 193.161224,150.324493 
	C198.014969,150.305267 197.768036,155.077637 199.474121,157.838364 
	C202.830994,163.270401 205.260223,169.281555 207.973923,175.099442 
	C208.423401,176.063080 208.634903,177.074387 209.928253,176.673813 
	C211.145660,176.296768 210.940369,175.129257 210.974380,174.165253 
	C211.412567,161.740768 214.773773,150.115295 220.594223,139.176880 
	C220.864319,138.669296 221.628830,138.424805 222.513840,138.018585 
	C217.692184,149.304520 212.805435,160.705627 213.002213,173.526566 
	C213.017334,174.511520 212.688873,175.509567 213.800537,176.636215 
	C213.944351,178.606903 210.767700,179.849396 212.907257,181.543640 
	C215.247437,183.396713 217.024628,181.101715 219.084625,179.666260 
z"/>
<path fill="#1F0918" opacity="1.000000" stroke="none" 
	d="
M168.664642,161.304001 
	C170.788055,184.973450 175.413940,208.395508 182.736771,231.660034 
	C179.038422,230.464371 179.078766,226.385880 178.469452,223.680756 
	C177.616196,219.892593 176.908707,215.686234 175.626144,212.296585 
	C173.170776,205.807281 172.677231,199.057663 171.181717,192.495422 
	C168.880463,182.397675 167.629074,172.052277 168.664642,161.304001 
z"/>
<path fill="#1F0918" opacity="1.000000" stroke="none" 
	d="
M181.971436,136.649078 
	C181.528473,136.878510 180.971771,136.875168 180.602783,136.610321 
	C171.209564,129.868240 171.896332,132.819077 170.426666,141.519577 
	C169.828278,145.061981 169.635132,148.672836 169.092911,152.617065 
	C166.357849,146.453720 169.217285,140.041504 169.577805,133.599106 
	C169.687851,131.632462 172.891052,130.334000 174.890976,131.309509 
	C177.425659,132.545868 180.588135,133.261169 181.971436,136.649078 
z"/>
<path fill="#1F0918" opacity="1.000000" stroke="none" 
	d="
M237.120453,117.145851 
	C232.863815,123.734329 227.284271,129.650620 223.454636,137.146606 
	C222.386719,133.910263 225.323914,131.521332 225.285538,128.176239 
	C228.080978,124.546867 232.790314,122.567932 233.933334,117.480293 
	C234.004974,117.161354 235.732620,117.214439 237.120453,117.145851 
z"/>
<path fill="#1F0918" opacity="1.000000" stroke="none" 
	d="
M192.853180,148.982208 
	C189.371918,147.261276 187.956924,143.346970 185.048126,140.355225 
	C188.998764,141.595261 192.051743,144.068634 192.853180,148.982208 
z"/>
<path fill="#1F0918" opacity="1.000000" stroke="none" 
	d="
M168.752594,155.151825 
	C169.072113,155.557404 169.170517,156.107697 169.121323,156.825684 
	C168.273605,156.571808 167.988312,156.042114 168.752594,155.151825 
z"/>
<path fill="#1F0918" opacity="1.000000" stroke="none" 
	d="
M184.955017,139.706177 
	C184.065018,139.930908 183.494247,139.372864 183.035034,138.309204 
	C183.948914,138.033722 184.713898,138.324921 184.955017,139.706177 
z"/>
<path fill="#0E0D0D" opacity="1.000000" stroke="none" 
	d="
M175.448883,129.531250 
	C175.415298,129.474731 175.482483,129.587769 175.448883,129.531250 
z"/>
<path fill="#9D2CE1" opacity="1.000000" stroke="none" 
	d="
M189.229401,250.541641 
	C205.466690,247.931885 221.581482,246.103363 237.785706,244.816025 
	C253.451584,243.571472 268.993958,240.804855 284.655151,239.458054 
	C295.393097,238.534622 306.068634,237.212921 316.769348,236.038544 
	C323.521454,235.297531 330.286194,234.671539 337.460938,233.960266 
	C340.570618,242.330917 340.870056,251.201721 342.897675,259.740906 
	C343.613953,262.757599 344.344177,267.702759 346.825775,267.270813 
	C350.772278,266.583954 348.608093,261.897278 348.266998,259.153046 
	C347.246735,250.944092 345.604370,242.812469 344.219421,234.245392 
	C347.247375,230.111374 351.799866,232.338928 355.812500,230.950592 
	C356.463196,230.996368 356.719299,231.041870 357.331238,231.238419 
	C358.510712,232.015182 358.903595,232.986969 359.684021,234.091568 
	C360.362091,235.528244 360.929077,236.609955 361.763428,237.841919 
	C362.796722,238.689850 363.147614,239.645401 363.775696,240.782806 
	C363.942444,241.033310 363.993835,241.016083 363.975586,241.036255 
	C365.910400,243.347183 367.085602,246.117661 368.744019,248.982635 
	C368.846069,249.312195 368.851135,249.695572 368.970703,249.845444 
	C370.945892,251.804047 371.741364,254.180267 372.727844,256.838989 
	C372.868103,257.148651 372.938324,257.003357 372.885986,257.064758 
	C374.464447,259.138214 375.268494,261.617493 376.713318,264.131470 
	C377.112976,265.172302 377.402924,265.878387 377.889374,266.795502 
	C378.652954,267.823944 378.796967,268.702911 378.197144,270.022217 
	C375.380219,271.886627 372.456848,272.052521 369.699280,272.153748 
	C362.021118,272.435486 354.452515,273.622131 346.873169,274.619965 
	C329.555542,276.899841 312.143311,278.311401 294.776917,280.015442 
	C276.917206,281.767914 259.128021,284.575012 240.724731,284.793762 
	C237.132401,284.263947 237.954269,280.697601 236.070602,279.078033 
	C234.057892,280.857452 234.848495,283.996307 232.349121,285.777832 
	C221.729721,287.984894 211.285004,288.284363 200.911362,289.250763 
	C199.744110,289.359528 198.595413,289.192352 197.162079,288.366028 
	C195.876022,285.080292 196.005035,281.941589 196.007263,278.369141 
	C197.335068,273.088562 194.195038,269.247040 192.947250,265.029541 
	C191.561096,260.344391 189.899307,255.747070 189.229401,250.541641 
z"/>
<path fill="#DB3C9D" opacity="1.000000" stroke="none" 
	d="
M357.312927,231.446167 
	C353.203766,233.243561 348.959656,232.591614 344.590698,233.688812 
	C341.657837,225.795578 341.141266,217.343338 339.552582,209.106613 
	C338.887024,205.655792 341.281158,208.090363 342.726898,208.764420 
	C343.041290,208.867447 343.036530,208.948486 343.076996,208.945450 
	C346.397003,211.593811 348.655426,215.035934 350.757385,219.008057 
	C350.858521,219.338562 350.895630,219.709183 351.025055,219.843079 
	C353.457550,223.583420 356.556610,226.737701 357.312927,231.446167 
z"/>
<path fill="#1F0918" opacity="1.000000" stroke="none" 
	d="
M357.362610,231.819656 
	C355.169617,228.069061 353.200073,224.369873 351.192505,220.323837 
	C354.754883,219.347824 353.363464,223.684860 355.789948,224.712021 
	C357.305969,226.237366 358.699646,227.421661 358.986877,229.695251 
	C358.981354,230.464554 358.992065,230.895996 359.011658,231.651016 
	C358.858429,232.105560 358.696320,232.236526 358.279419,232.186417 
	C358.024597,232.005356 357.586090,231.871078 357.362610,231.819656 
z"/>
<path fill="#1F0918" opacity="1.000000" stroke="none" 
	d="
M350.903198,218.946198 
	C348.343750,216.087845 345.828979,212.837143 343.215820,209.264420 
	C347.800323,210.457565 349.564728,214.350388 350.903198,218.946198 
z"/>
<path fill="#040205" opacity="1.000000" stroke="none" 
	d="
M359.302185,229.978867 
	C357.999603,228.578491 357.028534,227.123901 356.026917,225.332214 
	C357.873779,224.593552 358.886169,225.998672 360.412811,227.108429 
	C360.993286,228.401657 361.116486,229.488571 359.302185,229.978867 
z"/>
<path fill="#4C4AE8" opacity="1.000000" stroke="none" 
	d="
M238.686859,284.333191 
	C248.444992,282.436737 258.051239,282.334290 267.567780,281.139587 
	C280.016266,279.576813 292.539490,278.375366 305.042603,277.382233 
	C313.455994,276.713898 321.738129,275.101105 330.220215,274.812744 
	C339.599854,274.493958 348.928833,272.780670 358.288818,271.756226 
	C364.692139,271.055359 371.110687,270.493927 377.995300,269.827118 
	C381.375641,270.828491 381.184814,273.822815 382.077789,275.977264 
	C383.906921,280.390564 386.390503,284.554718 387.024475,289.470215 
	C388.253906,299.002594 384.245270,306.236694 377.264679,312.708801 
	C376.660461,313.073364 376.391113,313.241333 376.076813,313.716919 
	C373.396393,316.774323 370.878540,319.684387 367.040588,321.571411 
	C366.731018,321.711548 366.672455,321.685791 366.641266,321.674377 
	C363.332794,324.264893 361.265381,324.188568 360.712524,319.363342 
	C360.491943,317.438202 359.448700,315.599030 358.724854,313.742188 
	C357.980438,311.832733 356.650909,310.529694 354.516113,311.239166 
	C352.451599,311.925262 352.592163,313.861328 353.100708,315.460663 
	C357.240356,328.479340 358.455261,342.124969 361.740234,355.338043 
	C364.264587,365.491730 365.624329,375.900085 365.468506,386.437744 
	C365.394287,391.454803 365.045319,391.746613 360.462860,389.343445 
	C355.022827,386.490540 349.696716,383.420502 344.259521,380.561951 
	C342.059143,379.405060 339.752930,378.386444 337.396027,377.601593 
	C328.999939,374.805603 329.292664,374.858795 329.919891,365.775208 
	C331.021149,349.826447 328.660767,334.331848 322.494202,319.509064 
	C321.994141,318.307007 321.226288,317.121338 320.303894,316.210510 
	C318.587036,314.515228 317.322815,315.048401 316.926758,317.383118 
	C316.614044,319.226379 316.973633,321.019196 317.635620,322.764496 
	C322.843994,336.496246 324.600769,350.768463 324.457977,365.371155 
	C324.410065,370.270447 323.714996,374.675507 320.713593,378.909882 
	C316.236847,385.225586 316.538208,385.439209 309.353638,382.038177 
	C291.827728,371.517609 274.355408,371.780090 256.797211,380.826355 
	C250.272171,384.188202 242.579620,380.856110 240.981522,373.554688 
	C239.658493,367.509949 239.508621,361.347076 239.138016,355.203278 
	C238.952560,352.128784 239.308090,347.048676 236.353043,347.096100 
	C233.040375,347.149231 233.942169,352.201996 233.757050,355.162994 
	C233.529816,358.797821 233.848160,362.476105 234.071304,366.126953 
	C234.263580,369.272552 232.625214,369.761200 230.474670,368.359436 
	C222.611237,363.234009 213.933426,361.694763 204.762161,361.967804 
	C202.402100,362.038086 201.433853,360.774170 200.690491,358.510773 
	C198.117950,350.677795 197.059845,342.638458 196.945465,334.470245 
	C196.733398,319.325745 196.697617,304.178711 196.681793,288.585632 
	C208.469299,287.073853 220.163406,286.009186 232.289413,284.946838 
	C235.059219,286.806152 234.440552,289.471802 234.460297,291.864960 
	C234.534119,300.816498 234.311279,309.771973 235.520233,318.681824 
	C235.867157,321.238556 235.920090,323.841370 237.696884,326.903870 
	C238.972260,321.796906 238.336075,317.584198 238.046707,313.345917 
	C237.393402,303.777222 236.698578,294.193176 238.686859,284.333191 
z"/>
<path fill="#0A092C" opacity="1.000000" stroke="none" 
	d="
M377.332794,312.968933 
	C378.693115,310.581451 380.317261,308.104218 382.126068,305.770050 
	C387.075592,299.382965 387.481628,292.350220 384.917419,285.050323 
	C383.161346,280.050873 380.944458,275.213287 378.700836,270.043701 
	C378.323792,269.093628 378.179474,268.403168 378.060547,267.359619 
	C380.493439,267.642456 381.307098,269.653259 381.929199,271.693695 
	C383.468750,276.743103 385.494324,281.582550 387.949585,286.628998 
	C388.450348,295.018005 388.210419,302.878021 382.184692,309.198944 
	C380.836456,310.613281 379.731537,312.359253 377.332794,312.968933 
z"/>
<path fill="#040205" opacity="1.000000" stroke="none" 
	d="
M357.363953,323.016937 
	C357.103394,319.673950 354.986969,316.911346 354.062469,312.771362 
	C359.044800,314.863464 357.887268,319.566528 359.946503,322.642212 
	C359.230713,323.012909 358.484192,323.012390 357.363953,323.016937 
z"/>
<path fill="#0A092C" opacity="1.000000" stroke="none" 
	d="
M367.111267,321.802734 
	C369.599182,319.195465 372.467346,316.679413 375.656250,314.049927 
	C374.785706,318.334839 371.674469,320.685791 367.111267,321.802734 
z"/>
<path fill="#1F0918" opacity="1.000000" stroke="none" 
	d="
M289.004944,104.516800 
	C273.779938,99.170837 259.528870,101.273460 245.807526,110.343994 
	C247.533569,106.291466 251.523941,104.649643 255.395508,102.999001 
	C264.242401,99.227119 273.631439,99.870583 282.912811,100.091660 
	C285.499634,100.153282 288.971619,99.787117 289.004944,104.516800 
z"/>
<path fill="#1F0918" opacity="1.000000" stroke="none" 
	d="
M245.009338,110.340622 
	C243.132019,112.571381 240.877426,114.652016 238.304276,116.829811 
	C238.428070,112.932091 240.545181,110.589592 245.009338,110.340622 
z"/>
<path fill="#0A092C" opacity="1.000000" stroke="none" 
	d="
M368.890625,248.921051 
	C366.330963,247.372131 365.311829,244.477615 363.990723,241.405441 
	C367.260864,242.452377 368.139435,245.463562 368.890625,248.921051 
z"/>
<path fill="#0A092C" opacity="1.000000" stroke="none" 
	d="
M372.914307,256.751648 
	C370.758209,255.494812 370.226440,252.908676 369.074005,250.347046 
	C372.587982,250.771515 372.864288,253.508270 372.914307,256.751648 
z"/>
<path fill="#0A092C" opacity="1.000000" stroke="none" 
	d="
M376.877258,264.057190 
	C374.712189,262.733459 373.973145,260.185211 372.859894,257.484955 
	C373.308014,257.092651 373.782410,257.059174 374.612732,257.029327 
	C374.402191,259.600220 377.397278,261.110748 376.877258,264.057190 
z"/>
<path fill="#0A092C" opacity="1.000000" stroke="none" 
	d="
M363.966766,240.678467 
	C362.818542,240.617630 362.616028,239.489563 362.054169,238.306702 
	C363.538849,238.050735 364.030823,238.963638 363.966766,240.678467 
z"/>
<path fill="#0A092C" opacity="1.000000" stroke="none" 
	d="
M358.044678,232.325363 
	C358.024597,232.005356 358.522278,231.988602 358.771423,231.981598 
	C359.312805,232.566666 359.605042,233.158737 359.846222,234.098679 
	C359.218353,233.846146 358.641571,233.245758 358.044678,232.325363 
z"/>
<path fill="#1F0918" opacity="1.000000" stroke="none" 
	d="
M189.191986,249.890015 
	C191.598984,257.197723 193.744125,264.245361 196.074860,271.231079 
	C196.765991,273.302521 197.598511,275.226044 196.211243,277.639038 
	C195.877350,277.617523 195.697098,277.371216 195.218353,277.089294 
	C194.625076,276.611420 194.479996,276.157684 194.805161,275.331787 
	C193.958557,270.061157 192.261093,265.300476 190.042084,260.343323 
	C189.743317,256.490326 188.587662,253.352814 186.179092,250.339844 
	C186.256592,246.553909 185.320770,243.372040 183.290253,240.168549 
	C183.016388,238.201797 183.026230,236.462891 183.091766,234.287430 
	C186.054489,238.747559 186.314987,244.627502 189.191986,249.890015 
z"/>
<path fill="#0C0C0F" opacity="1.000000" stroke="none" 
	d="
M194.738159,275.054382 
	C195.028168,275.469666 195.018814,275.903656 195.008820,276.663330 
	C195.008148,276.989044 194.531097,277.014954 194.293030,277.024902 
	C192.935379,276.136841 193.105820,275.491241 194.738159,275.054382 
z"/>
<path fill="#0A0A0A" opacity="1.000000" stroke="none" 
	d="
M328.014008,356.532593 
	C327.816284,357.751434 327.853424,358.786377 327.358032,359.240570 
	C326.869080,359.688843 326.047272,359.053528 326.119812,358.300995 
	C326.873810,350.481201 324.399689,342.938812 324.210358,335.206543 
	C324.205811,335.021149 324.650543,334.824768 325.197235,334.380219 
	C327.560699,341.561371 328.563538,348.715118 328.014008,356.532593 
z"/>
<path fill="#232225" opacity="1.000000" stroke="none" 
	d="
M247.650543,443.690002 
	C246.304489,443.102356 244.876266,443.374664 244.434525,441.375549 
	C246.539734,440.740723 248.611572,440.363678 250.750885,441.335999 
	C251.433884,441.646423 251.492508,442.378693 251.118851,443.003418 
	C250.371292,444.253174 249.182159,443.971863 247.650543,443.690002 
z"/>
<path fill="#232225" opacity="1.000000" stroke="none" 
	d="
M245.666229,438.675232 
	C247.206238,436.303009 249.089874,437.616089 251.803909,438.146027 
	C249.568497,440.720093 247.776581,440.030670 245.666229,438.675232 
z"/>
<path fill="#232225" opacity="1.000000" stroke="none" 
	d="
M292.891724,439.231934 
	C295.868286,440.272522 295.723541,441.514893 293.261353,442.122833 
	C291.397369,442.583069 289.365387,442.151428 287.816345,440.495361 
	C289.254913,439.404419 290.907623,439.410339 292.891724,439.231934 
z"/>
<path fill="#232225" opacity="1.000000" stroke="none" 
	d="
M288.067047,436.297729 
	C290.266174,435.249420 292.303406,434.865662 294.055328,436.571808 
	C294.213715,436.726105 293.992920,437.672546 293.779236,437.743652 
	C291.655334,438.450623 289.633057,438.328064 288.067047,436.297729 
z"/>
<path fill="#1D0513" opacity="1.000000" stroke="none" 
	d="
M282.157654,145.603638 
	C282.263824,143.721649 282.296295,142.210953 282.611847,140.761902 
	C283.345642,137.391891 285.734344,135.656464 288.966919,135.302017 
	C292.380676,134.927704 294.066864,137.353317 295.196960,140.069839 
	C296.543030,143.305466 296.050873,146.646439 294.957397,149.825043 
	C294.161438,152.138824 292.431152,153.863251 289.873657,154.039200 
	C287.551331,154.199005 285.691345,153.018311 284.577362,150.926132 
	C283.722473,149.320557 282.996094,147.646530 282.157654,145.603638 
z"/>
<path fill="#18040E" opacity="1.000000" stroke="none" 
	d="
M252.802750,136.253845 
	C257.398529,140.581985 257.944550,147.196426 254.328369,151.607697 
	C251.803329,154.687912 248.745575,154.236145 245.897644,152.369949 
	C243.265717,150.645340 242.682541,143.298203 244.706192,139.268677 
	C246.325867,136.043610 248.870483,134.652740 252.802750,136.253845 
z"/>
<path fill="#040205" opacity="1.000000" stroke="none" 
	d="
M219.396973,179.624054 
	C218.907990,181.235092 218.252502,182.565903 216.344452,183.097839 
	C214.232178,183.686707 212.413071,184.646317 210.924194,181.904907 
	C209.241272,178.806229 211.589691,178.273010 213.726990,177.125961 
	C214.037506,176.974274 214.529510,176.983749 214.749588,177.093750 
	C215.977081,178.358292 217.278091,179.024338 219.029602,179.528427 
	C219.340027,179.599518 219.375748,179.621704 219.396973,179.624054 
z"/>
<path fill="#1F0918" opacity="1.000000" stroke="none" 
	d="
M219.191040,179.317398 
	C217.572922,179.916183 215.571289,180.856308 214.989273,177.587036 
	C216.643814,177.110123 217.751724,178.275513 219.191040,179.317398 
z"/>
<path fill="#040205" opacity="1.000000" stroke="none" 
	d="
M221.419800,200.368073 
	C220.746780,200.483215 220.121704,200.487152 219.873276,200.183228 
	C218.375168,198.350540 216.945770,195.920959 217.642883,193.920090 
	C218.267197,192.128128 219.591415,193.470612 219.995300,194.978806 
	C220.291870,196.086212 220.745148,197.150909 221.105240,198.242355 
	C221.308487,198.858383 221.464508,199.490005 221.419800,200.368073 
z"/>
<path fill="#EC3CA5" opacity="1.000000" stroke="none" 
	d="
M219.870178,189.111679 
	C219.462296,188.777695 219.049789,188.079514 219.239700,187.643982 
	C219.517319,187.007294 219.953568,187.619675 220.442078,188.110229 
	C220.453827,188.502838 220.294342,188.683868 219.870178,189.111679 
z"/>
<path fill="#0A092C" opacity="1.000000" stroke="none" 
	d="
M238.882584,283.645691 
	C238.232056,296.800720 239.069595,309.534576 239.975403,322.275513 
	C240.146881,324.687286 241.614319,328.594727 238.207962,329.086121 
	C234.833771,329.572845 235.025574,325.561523 234.670074,323.103363 
	C232.884735,310.757935 232.988571,298.312653 232.816284,285.414642 
	C232.847229,284.467407 232.945038,283.976166 233.103806,283.505493 
	C233.923492,281.075623 233.474152,276.781830 236.011719,276.742340 
	C239.090042,276.694397 237.775177,281.012085 238.882584,283.645691 
z"/>
</svg>